<svg xmlns="http://www.w3.org/2000/svg" viewBox="0 0 512 512">
    <defs>
        <linearGradient id="bg" x1="80" y1="60" x2="430" y2="456" gradientUnits="userSpaceOnUse">
            <stop stop-color="#6ea8ff"/>
            <stop offset="0.48" stop-color="#4f7cff"/>
            <stop offset="1" stop-color="#253bff"/>
        </linearGradient>
        <radialGradient id="glow" cx="0" cy="0" r="1" gradientUnits="userSpaceOnUse" gradientTransform="translate(150 126) rotate(54) scale(420)">
            <stop stop-color="#ffffff" stop-opacity="0.42"/>
            <stop offset="0.55" stop-color="#ffffff" stop-opacity="0"/>
        </radialGradient>
    </defs>
    <rect width="512" height="512" rx="116" fill="#081126"/>
    <rect x="44" y="44" width="424" height="424" rx="104" fill="url(#bg)"/>
    <rect x="44" y="44" width="424" height="424" rx="104" fill="url(#glow)"/>
    <path d="M153 166h48v180h-48V166Zm87 0h78c45 0 75 28 75 70 0 43-31 72-77 72h-28v38h-48V166Zm72 101c20 0 32-12 32-30 0-19-12-30-32-30h-24v60h24Z" fill="#fff"/>
    <path d="M132 380h248" stroke="#DDE7FF" stroke-width="20" stroke-linecap="round" opacity="0.92"/>
</svg>
